<svg width="596" height="192" viewBox="0 0 596 192" fill="none" xmlns="http://www.w3.org/2000/svg">
<path d="M59.2664 101.711C59.2664 101.711 47.1845 78.5974 30.8186 78.5974C14.4526 78.5974 0 101.711 0 101.711C0 101.711 14.4526 124.825 30.8186 124.825C47.1845 124.825 59.2664 101.711 59.2664 101.711Z" fill="#CD7A7A"/>
<path d="M130.263 101.184C130.263 101.184 118.181 78.0699 101.815 78.0699C85.4487 78.0699 70.9961 101.184 70.9961 101.184C70.9961 101.184 85.4487 124.298 101.815 124.298C118.181 124.298 130.263 101.184 130.263 101.184Z" fill="#CD7A7A"/>
<path d="M65.4396 107.201C65.4396 107.201 42.3257 119.283 42.3257 135.649C42.3257 152.015 65.4396 166.468 65.4396 166.468C65.4396 166.468 88.5535 152.015 88.5535 135.649C88.5535 119.283 65.4396 107.201 65.4396 107.201Z" fill="#CD7A7A"/>
<path d="M65.1925 96.3774C65.1925 96.3774 42.0786 84.2954 42.0786 67.9295C42.0786 51.5635 65.1925 37.1109 65.1925 37.1109C65.1925 37.1109 88.3065 51.5635 88.3065 67.9295C88.3065 84.2954 65.1925 96.3774 65.1925 96.3774Z" fill="#CD7A7A"/>
<path d="M195.679 80.456H180.959V141H169.311V80.456H160.223V70.856H169.311V65.864C169.311 58.0133 171.317 52.296 175.327 48.712C179.423 45.0427 185.951 43.208 194.911 43.208V52.936C189.791 52.936 186.165 53.96 184.031 56.008C181.983 57.9707 180.959 61.256 180.959 65.864V70.856H195.679V80.456ZM271.468 70.856V141H259.82V130.632C257.602 134.216 254.487 137.032 250.476 139.08C246.551 141.043 242.199 142.024 237.42 142.024C231.959 142.024 227.052 140.915 222.7 138.696C218.348 136.392 214.892 132.979 212.332 128.456C209.858 123.933 208.62 118.429 208.62 111.944V70.856H220.14V110.408C220.14 117.32 221.89 122.653 225.388 126.408C228.887 130.077 233.666 131.912 239.724 131.912C245.954 131.912 250.86 129.992 254.444 126.152C258.028 122.312 259.82 116.723 259.82 109.384V70.856H271.468ZM299.839 131.4H334.271V141H286.527V131.4L320.575 80.328H286.783V70.856H334.015V80.328L299.839 131.4ZM358.089 131.4H392.521V141H344.777V131.4L378.825 80.328H345.033V70.856H392.265V80.328L358.089 131.4ZM403.283 105.8C403.283 98.5467 404.734 92.232 407.635 86.856C410.537 81.3947 414.547 77.1707 419.667 74.184C424.873 71.1973 430.803 69.704 437.459 69.704C446.078 69.704 453.161 71.7947 458.707 75.976C464.339 80.1573 468.051 85.96 469.843 93.384H457.299C456.105 89.1173 453.758 85.7467 450.259 83.272C446.846 80.7973 442.579 79.56 437.459 79.56C430.803 79.56 425.427 81.864 421.331 86.472C417.235 90.9947 415.187 97.4373 415.187 105.8C415.187 114.248 417.235 120.776 421.331 125.384C425.427 129.992 430.803 132.296 437.459 132.296C442.579 132.296 446.846 131.101 450.259 128.712C453.673 126.323 456.019 122.909 457.299 118.472H469.843C467.966 125.64 464.211 131.4 458.579 135.752C452.947 140.019 445.907 142.152 437.459 142.152C430.803 142.152 424.873 140.659 419.667 137.672C414.547 134.685 410.537 130.461 407.635 125C404.734 119.539 403.283 113.139 403.283 105.8ZM520.201 69.576C525.492 69.576 530.271 70.728 534.537 73.032C538.804 75.2507 542.132 78.6213 544.521 83.144C546.996 87.6667 548.233 93.1707 548.233 99.656V141H536.713V101.32C536.713 94.3227 534.964 88.9893 531.465 85.32C527.967 81.5653 523.188 79.688 517.129 79.688C510.985 79.688 506.079 81.608 502.409 85.448C498.825 89.288 497.033 94.8773 497.033 102.216V141H485.385V46.28H497.033V80.84C499.337 77.256 502.495 74.4827 506.505 72.52C510.601 70.5573 515.167 69.576 520.201 69.576Z" fill="#FEFBFB"/>
<rect x="56.3418" y="101.632" width="12.2073" height="12.2073" transform="rotate(-45 56.3418 101.632)" fill="#BFAF9C"/>
</svg>
