<svg width="396" height="396" viewBox="0 0 396 396" fill="none" xmlns="http://www.w3.org/2000/svg">
<circle cx="198" cy="198" r="196" fill="#242424" stroke="#E8E7E2" stroke-width="4"/>
<path d="M182.526 198.697C182.526 198.697 153.164 142.525 113.39 142.525C73.6169 142.525 38.4934 198.697 38.4934 198.697C38.4934 198.697 73.6169 254.87 113.39 254.87C153.164 254.87 182.526 198.697 182.526 198.697Z" fill="#CD7A7A"/>
<path d="M355.063 197.415C355.063 197.415 325.701 141.242 285.928 141.242C246.154 141.242 211.031 197.415 211.031 197.415C211.031 197.415 246.154 253.588 285.928 253.588C325.701 253.588 355.063 197.415 355.063 197.415Z" fill="#CD7A7A"/>
<path d="M197.525 212.037C197.525 212.037 141.352 241.399 141.352 281.173C141.352 320.946 197.525 356.07 197.525 356.07C197.525 356.07 253.698 320.946 253.698 281.173C253.698 241.399 197.525 212.037 197.525 212.037Z" fill="#CD7A7A"/>
<path d="M196.929 185.734C196.929 185.734 140.756 156.372 140.756 116.599C140.756 76.8253 196.929 41.7019 196.929 41.7019C196.929 41.7019 253.102 76.8253 253.102 116.599C253.102 156.372 196.929 185.734 196.929 185.734Z" fill="#CD7A7A"/>
<rect x="177.364" y="198.718" width="27.0641" height="27.0641" transform="rotate(-45 177.364 198.718)" fill="#BFAF9C"/>
</svg>
