<svg width="20" height="18" viewBox="0 0 20 18" fill="none" xmlns="http://www.w3.org/2000/svg">
<path d="M0 13.7692L1.68917 16.6901C1.85748 17.024 2.11601 17.3046 2.4344 17.5008C2.7528 17.6969 3.11938 17.8008 3.49333 17.8009H14.7075L12.3808 13.7692H0ZM20 13.7901C20 13.3867 19.8808 13.0109 19.6767 12.6951L13.1067 1.27339C12.9348 0.949061 12.6778 0.677693 12.3633 0.488439C12.0488 0.299185 11.6887 0.199197 11.3217 0.199219H7.84917L17.9983 17.7834L19.5983 15.0126C19.9133 14.4817 20 14.2467 20 13.7901ZM10.7258 10.9051L6.19 3.04839L1.65333 10.9051H10.7258Z" fill="#242424"/>
</svg>
